<?xml version="1.0" encoding="UTF-8" standalone="no"?>
<!-- Created with Inkscape (http://www.inkscape.org/) -->

<svg
   xmlns:dc="http://purl.org/dc/elements/1.1/"
   xmlns:cc="http://creativecommons.org/ns#"
   xmlns:rdf="http://www.w3.org/1999/02/22-rdf-syntax-ns#"
   xmlns:svg="http://www.w3.org/2000/svg"
   xmlns="http://www.w3.org/2000/svg"
   xmlns:xlink="http://www.w3.org/1999/xlink"
   xmlns:sodipodi="http://sodipodi.sourceforge.net/DTD/sodipodi-0.dtd"
   xmlns:inkscape="http://www.inkscape.org/namespaces/inkscape"
   width="581.21033"
   height="659.24091"
   id="svg2"
   sodipodi:version="0.32"
   inkscape:version="0.48.3.1 r9886"
   sodipodi:docname="background.svg"
   inkscape:output_extension="org.inkscape.output.svg.inkscape"
   version="1.0"
   inkscape:export-filename="/home/tk/Desktop/detiles-Illustration/Crystal_Clear_action_run (Kopie).png"
   inkscape:export-xdpi="514.28998"
   inkscape:export-ydpi="514.28998">
  <sodipodi:namedview
     id="base"
     pagecolor="#ffffff"
     bordercolor="#666666"
     borderopacity="1.0"
     gridtolerance="10000"
     guidetolerance="10"
     objecttolerance="10"
     inkscape:pageopacity="0.0"
     inkscape:pageshadow="2"
     inkscape:zoom="0.49497475"
     inkscape:cx="108.64705"
     inkscape:cy="446.18508"
     inkscape:document-units="px"
     inkscape:current-layer="layer1"
     showgrid="false"
     inkscape:window-width="1229"
     inkscape:window-height="787"
     inkscape:window-x="49"
     inkscape:window-y="24"
     showguides="true"
     inkscape:guide-bbox="true"
     inkscape:window-maximized="0"
     fit-margin-top="0"
     fit-margin-left="0"
     fit-margin-right="0"
     fit-margin-bottom="0" />
  <defs
     id="defs4">
    <linearGradient
       id="linearGradient3812">
      <stop
         style="stop-color:#2e2e2e;stop-opacity:1;"
         offset="0"
         id="stop3814" />
      <stop
         style="stop-color:#000000;stop-opacity:0;"
         offset="1"
         id="stop3816" />
    </linearGradient>
    <linearGradient
       id="linearGradient3299">
      <stop
         style="stop-color:#6a7390;stop-opacity:1;"
         offset="0"
         id="stop3301" />
      <stop
         style="stop-color:#eaebef;stop-opacity:1;"
         offset="1"
         id="stop3303" />
    </linearGradient>
    <linearGradient
       id="linearGradient3283">
      <stop
         style="stop-color:#ffffff;stop-opacity:0.78688526;"
         offset="0"
         id="stop3285" />
      <stop
         style="stop-color:#ffffff;stop-opacity:0;"
         offset="1"
         id="stop3287" />
    </linearGradient>
    <filter
       inkscape:collect="always"
       id="filter3525"
       color-interpolation-filters="sRGB">
      <feGaussianBlur
         inkscape:collect="always"
         stdDeviation="3.1093332"
         id="feGaussianBlur3527" />
    </filter>
    <linearGradient
       inkscape:collect="always"
       xlink:href="#linearGradient3299"
       id="linearGradient3097"
       gradientUnits="userSpaceOnUse"
       x1="236.14679"
       y1="509.08899"
       x2="256.25"
       y2="553.19183" />
    <linearGradient
       inkscape:collect="always"
       xlink:href="#linearGradient3299"
       id="linearGradient3099"
       gradientUnits="userSpaceOnUse"
       x1="251.46344"
       y1="510.37042"
       x2="261.67477"
       y2="558.29987" />
    <linearGradient
       inkscape:collect="always"
       xlink:href="#linearGradient3299"
       id="linearGradient3101"
       gradientUnits="userSpaceOnUse"
       x1="170.4201"
       y1="513.32434"
       x2="170.4201"
       y2="577.06873" />
    <linearGradient
       inkscape:collect="always"
       xlink:href="#linearGradient3283"
       id="linearGradient3103"
       gradientUnits="userSpaceOnUse"
       x1="170.4201"
       y1="501.71945"
       x2="170.4201"
       y2="518.36169" />
    <linearGradient
       inkscape:collect="always"
       xlink:href="#linearGradient3812"
       id="linearGradient3105"
       gradientUnits="userSpaceOnUse"
       x1="377.50214"
       y1="507.22119"
       x2="377.50214"
       y2="534.16211" />
    <linearGradient
       inkscape:collect="always"
       xlink:href="#linearGradient3299"
       id="linearGradient3124"
       gradientUnits="userSpaceOnUse"
       gradientTransform="translate(3.1994576,3.6741126)"
       x1="327.14285"
       y1="571.29077"
       x2="327.14285"
       y2="481.29074" />
    <filter
       color-interpolation-filters="sRGB"
       inkscape:collect="always"
       id="filter3525-8">
      <feGaussianBlur
         inkscape:collect="always"
         stdDeviation="3.1093332"
         id="feGaussianBlur3527-6" />
    </filter>
    <linearGradient
       inkscape:collect="always"
       xlink:href="#linearGradient3299"
       id="linearGradient3936"
       gradientUnits="userSpaceOnUse"
       x1="236.14679"
       y1="509.08899"
       x2="256.25"
       y2="553.19183" />
    <linearGradient
       inkscape:collect="always"
       xlink:href="#linearGradient3299"
       id="linearGradient3938"
       gradientUnits="userSpaceOnUse"
       x1="251.46344"
       y1="510.37042"
       x2="261.67477"
       y2="558.29987" />
    <linearGradient
       inkscape:collect="always"
       xlink:href="#linearGradient3299"
       id="linearGradient3940"
       gradientUnits="userSpaceOnUse"
       x1="170.4201"
       y1="513.32434"
       x2="170.4201"
       y2="577.06873" />
    <linearGradient
       inkscape:collect="always"
       xlink:href="#linearGradient3283"
       id="linearGradient3942"
       gradientUnits="userSpaceOnUse"
       x1="170.4201"
       y1="501.71945"
       x2="170.4201"
       y2="518.36169" />
    <linearGradient
       inkscape:collect="always"
       xlink:href="#linearGradient3812"
       id="linearGradient3944"
       gradientUnits="userSpaceOnUse"
       x1="377.50214"
       y1="507.22119"
       x2="377.50214"
       y2="534.16211" />
  </defs>
  <metadata
     id="metadata7">
    <rdf:RDF>
      <cc:Work
         rdf:about="">
        <dc:format>image/svg+xml</dc:format>
        <dc:type
           rdf:resource="http://purl.org/dc/dcmitype/StillImage" />
        <dc:title />
      </cc:Work>
    </rdf:RDF>
  </metadata>
  <g
     inkscape:label="Layer 1"
     inkscape:groupmode="layer"
     id="layer1"
     transform="translate(-104.00374,-283.94714)">
    <path
       id="path3346"
       d="m 369.21912,481.71875 -2.15625,6.59375 0,0.1875 c -3.34544,0.43847 -6.54858,1.28098 -9.5625,2.53125 l -0.0625,-0.125 -5.1875,-4.65625 -4.875,2.8125 1.40625,6.8125 0.0937,0.15625 c -2.62211,2.01686 -4.95059,4.37894 -6.96875,7 l -0.15625,-0.0937 -6.8125,-1.4375 -2.8125,4.875 4.625,5.1875 0.15625,0.0625 c -1.2486,3.00951 -2.12326,6.22232 -2.5625,9.5625 l -0.15625,0 -6.625,2.15625 0,5.65625 6.625,2.15625 0.15625,0 c 0.43848,3.34664 1.31166,6.54761 2.5625,9.5625 l -0.15625,0.0937 -4.625,5.15625 2.8125,4.90625 6.8125,-1.4375 0.125,-0.0937 c 2.02078,2.62721 4.37279,4.97922 7,7 l -0.0937,0.15625 -1.40625,6.78125 4.875,2.8125 5.1875,-4.625 0.0937,-0.15625 c 3.00659,1.24468 6.19515,2.12525 9.53125,2.5625 l 0,0.1875 2.15625,6.59375 5.65625,0 2.15625,-6.59375 0,-0.1875 c 3.3361,-0.43725 6.52466,-1.31782 9.53125,-2.5625 l 0.0937,0.15625 5.1875,4.625 4.875,-2.8125 -1.40625,-6.78125 -0.0937,-0.15625 c 2.62721,-2.02078 4.97922,-4.37279 7,-7 l 0.125,0.0937 6.8125,1.4375 2.8125,-4.90625 -4.625,-5.15625 -0.15625,-0.0937 c 1.25084,-3.01489 2.12402,-6.21586 2.5625,-9.5625 l 0.15625,0 6.625,-2.15625 0,-5.65625 -6.625,-2.15625 -0.15625,0 c -0.43925,-3.34018 -1.3139,-6.55299 -2.5625,-9.5625 l 0.15625,-0.0625 4.625,-5.1875 -2.8125,-4.875 -6.8125,1.4375 -0.15625,0.0937 c -2.01816,-2.62106 -4.34664,-4.98314 -6.96875,-7 l 0.0937,-0.15625 1.40625,-6.8125 -4.875,-2.8125 -5.1875,4.65625 -0.0625,0.125 c -3.01392,-1.25027 -6.21706,-2.09278 -9.5625,-2.53125 l 0,-0.1875 -2.15625,-6.59375 -5.65625,0 z m 2.84375,10.71875 c 18.62999,10e-6 33.75,15.12001 33.75,33.75 1e-5,18.62998 -15.12,33.75 -33.75,33.75 -18.63002,-2e-5 -33.75,-15.12 -33.75,-33.75 0,-18.63002 15.12,-33.75 33.75,-33.75 z"
       style="fill:#000000;fill-opacity:1;stroke:none;filter:url(#filter3525)"
       inkscape:connector-curvature="0"
       transform="matrix(-2.7149884,0,0,2.7149884,1255.1425,-626.3975)" />
    <path
       style="fill:#eeeeee;fill-opacity:1;stroke:#cccccc;stroke-width:2;stroke-miterlimit:4;stroke-opacity:1;stroke-dasharray:none"
       d="m 252.71681,681.4633 5.8542,17.90196 0,0.50908 c 9.08284,1.19044 17.77932,3.47784 25.96208,6.87232 l 0.1696,-0.3396 14.084,-12.64164 13.2356,7.63588 -3.81796,18.49588 -0.2544,0.4242 c 7.119,5.47576 13.4408,11.8888 18.92008,19.00492 l 0.4242,-0.2544 18.49588,-3.9028 7.63588,13.2356 -12.5568,14.084 -0.42424,0.1696 c 3.38996,8.1708 5.76464,16.89352 6.95716,25.96208 l 0.42424,0 17.9868,5.8542 0,15.35664 -17.9868,5.8542 -0.42424,0 c -1.19044,9.08608 -3.56112,17.77668 -6.95716,25.96208 l 0.42424,0.2544 12.5568,13.99916 -7.63588,13.3204 -18.49588,-3.9028 -0.3392,-0.2544 c -5.4864,7.13284 -11.87208,13.51852 -19.00492,19.00492 l 0.2544,0.42424 3.81796,18.411 -13.2356,7.63592 -14.084,-12.55684 -0.2544,-0.4242 c -8.16284,3.37928 -16.81976,5.77 -25.8772,6.95712 l 0,0.50908 -5.8542,17.90196 -15.35668,0 -5.85416,-17.90196 0,-0.50908 c -9.05748,-1.18712 -17.7144,-3.57784 -25.87724,-6.95712 l -0.2544,0.4242 -14.084,12.55684 -13.23556,-7.63592 3.81792,-18.411 0.2544,-0.42424 c -7.13284,-5.4864 -13.51852,-11.87208 -19.00492,-19.00492 l -0.3392,0.2544 -18.49588,3.9028 -7.63588,-13.3204 12.5568,-13.99916 0.42424,-0.2544 c -3.39604,-8.1854 -5.76668,-16.876 -6.95716,-25.96208 l -0.42424,0 -17.9868,-5.8542 0,-15.35664 17.9868,-5.8542 0.42424,0 c 1.19256,-9.06856 3.5672,-17.79128 6.95716,-25.96208 l -0.42424,-0.1696 -12.5568,-14.084 7.63588,-13.2356 18.49588,3.9028 0.4242,0.2544 c 5.47928,-7.11612 11.80108,-13.52916 18.92008,-19.00492 l -0.2544,-0.4242 -3.81792,-18.49588 13.23556,-7.63588 14.084,12.64164 0.1696,0.3396 c 8.18276,-3.39448 16.87924,-5.68188 25.96208,-6.87232 l 0,-0.50908 5.8542,-17.90196 15.35664,0 z m -7.72072,29.10132 c -50.58024,0 -91.63088,41.05064 -91.63088,91.63084 -4e-5,50.58016 41.05064,91.63084 91.63088,91.63084 50.58028,-4e-5 91.63084,-41.0506 91.63084,-91.63084 0,-50.58028 -41.05064,-91.63084 -91.63084,-91.63084 z"
       id="path3348"
       inkscape:connector-curvature="0" />
    <path
       style="fill:#000000;fill-opacity:1;stroke:none;filter:url(#filter3525-8)"
       d="m 372.59156,487.10711 -2.15625,6.59375 0,0.1875 c -3.34544,0.43847 -6.54858,1.28098 -9.5625,2.53125 l -0.0625,-0.125 -5.1875,-4.65625 -4.875,2.8125 1.40625,6.8125 0.0937,0.15625 c -2.62211,2.01686 -4.95059,4.37894 -6.96875,7 l -0.15625,-0.0937 -6.8125,-1.4375 -2.8125,4.875 4.625,5.1875 0.15625,0.0625 c -1.2486,3.00951 -2.12326,6.22232 -2.5625,9.5625 l -0.15625,0 -6.625,2.15625 0,5.65625 6.625,2.15625 0.15625,0 c 0.43848,3.34664 1.31166,6.54761 2.5625,9.5625 l -0.15625,0.0937 -4.625,5.15625 2.8125,4.90625 6.8125,-1.4375 0.125,-0.0937 c 2.02078,2.62721 4.37279,4.97922 7,7 l -0.0937,0.15625 -1.40625,6.78125 4.875,2.8125 5.1875,-4.625 0.0937,-0.15625 c 3.00659,1.24468 6.19515,2.12525 9.53125,2.5625 l 0,0.1875 2.15625,6.59375 5.65625,0 2.15625,-6.59375 0,-0.1875 c 3.3361,-0.43725 6.52466,-1.31782 9.53125,-2.5625 l 0.0937,0.15625 5.1875,4.625 4.875,-2.8125 -1.40625,-6.78125 -0.0937,-0.15625 c 2.62721,-2.02078 4.97922,-4.37279 7,-7 l 0.125,0.0937 6.8125,1.4375 2.8125,-4.90625 -4.625,-5.15625 -0.15625,-0.0937 c 1.25084,-3.01489 2.12402,-6.21586 2.5625,-9.5625 l 0.15625,0 6.625,-2.15625 0,-5.65625 -6.625,-2.15625 -0.15625,0 c -0.43925,-3.34018 -1.3139,-6.55299 -2.5625,-9.5625 l 0.15625,-0.0625 4.625,-5.1875 -2.8125,-4.875 -6.8125,1.4375 -0.15625,0.0937 c -2.01816,-2.62106 -4.34664,-4.98314 -6.96875,-7 l 0.0937,-0.15625 1.40625,-6.8125 -4.875,-2.8125 -5.1875,4.65625 -0.0625,0.125 c -3.01392,-1.25027 -6.21706,-2.09278 -9.5625,-2.53125 l 0,-0.1875 -2.15625,-6.59375 -5.65625,0 z m 2.84375,10.71875 c 18.62999,1e-5 33.75,15.12001 33.75,33.75 10e-6,18.62998 -15.12,33.75 -33.75,33.75 -18.63002,-2e-5 -33.75,-15.12 -33.75,-33.75 0,-18.63002 15.12,-33.75 33.75,-33.75 z"
       id="path3495-8"
       inkscape:connector-curvature="0"
       transform="matrix(-4,0,0,4,1979.1055,-1634.6317)" />
    <path
       id="path2479-0"
       d="m 488.73928,313.79675 8.625,26.375 0,0.75 c 13.38176,1.75388 26.19432,5.12392 38.25,10.125 l 0.25,-0.5 20.75,-18.625 19.5,11.25 -5.625,27.25 -0.3748,0.625 c 10.48844,8.06744 19.80236,17.51576 27.875,28 l 0.625,-0.3748 27.25,-5.75 11.25,19.5 -18.5,20.75 -0.625,0.25 c 4.9944,12.03804 8.49304,24.88928 10.25,38.25 l 0.625,0 26.5,8.625 0,22.625 -26.5,8.625 -0.625,0 c -1.75392,13.38656 -5.24664,26.19044 -10.25,38.25 l 0.625,0.3748 18.5,20.625 -11.25,19.625 -27.25,-5.75 -0.5,-0.3748 c -8.08312,10.50884 -17.49116,19.91688 -28,28 l 0.3748,0.625 5.625,27.125 -19.5,11.25 -20.75,-18.5 -0.3748,-0.625 c -12.02636,4.97872 -24.7806,8.501 -38.125,10.25 l 0,0.75 -8.625,26.375 -22.625,0 -8.625,-26.375 0,-0.75 c -13.3444,-1.749 -26.09864,-5.27128 -38.125,-10.25 l -0.3748,0.625 -20.75,18.5 -19.5,-11.25 5.625,-27.125 0.3748,-0.625 c -10.50884,-8.08312 -19.91688,-17.49116 -28,-28 l -0.5,0.3748 -27.25,5.75 -11.25,-19.625 18.5,-20.625 0.625,-0.3748 c -5.00336,-12.05956 -8.49608,-24.86344 -10.25,-38.25 l -0.625,0 -26.5,-8.625 0,-22.625 26.5,-8.625 0.625,0 c 1.757,-13.36072 5.2556,-26.21196 10.25,-38.25 l -0.625,-0.25 -18.5,-20.75 11.25,-19.5 27.25,5.75 0.625,0.3748 c 8.07264,-10.48424 17.38656,-19.93256 27.875,-28 l -0.3748,-0.625 -5.625,-27.25 19.5,-11.25 20.75,18.625 0.25,0.5 c 12.05568,-5.00108 24.86824,-8.37112 38.25,-10.125 l 0,-0.75 8.625,-26.375 22.625,0 z m -11.375,42.875 c -74.51996,4e-5 -135,60.48004 -135,135 -4e-5,74.51992 60.48,135 135,135 74.52008,-8e-5 135,-60.48 135,-135 0,-74.52008 -60.48,-135 -135,-135 z"
       style="color:#000000;fill:#eeeeee;fill-opacity:1;fill-rule:nonzero;stroke:#cccccc;stroke-width:2;stroke-linecap:butt;stroke-linejoin:miter;stroke-miterlimit:4;stroke-opacity:1;stroke-dasharray:none;stroke-dashoffset:0;marker:none;visibility:visible;display:inline;overflow:visible;enable-background:accumulate"
       inkscape:connector-curvature="0" />
  </g>
</svg>
